<mxfile host="app.diagrams.net" modified="2024-03-21T14:33:58.146Z" agent="Mozilla/5.0 (Macintosh; Intel Mac OS X 10_15_7) AppleWebKit/537.36 (KHTML, like Gecko) Chrome/122.0.0.0 Safari/537.36" etag="F7EIpyA5TX-wKKroFU4k" version="23.1.5" type="device">
  <diagram name="Page-1" id="4Me6U7C_-zSNoH5bvVZx">
    <mxGraphModel dx="1854" dy="2838" grid="1" gridSize="10" guides="1" tooltips="1" connect="1" arrows="1" fold="1" page="1" pageScale="1" pageWidth="850" pageHeight="1100" math="0" shadow="0">
      <root>
        <mxCell id="0" />
        <mxCell id="1" parent="0" />
        <mxCell id="Noz64joclwTQBEQuJF2k-1" value="&lt;b&gt;&lt;font style=&quot;font-size: 16px;&quot;&gt;Gym Management Staff&lt;/font&gt;&lt;/b&gt;" style="rounded=0;whiteSpace=wrap;html=1;" vertex="1" parent="1">
          <mxGeometry x="747.5" y="-1230" width="200" height="60" as="geometry" />
        </mxCell>
        <mxCell id="Noz64joclwTQBEQuJF2k-2" value="&lt;b&gt;&lt;font style=&quot;font-size: 15px;&quot;&gt;Age&lt;/font&gt;&lt;/b&gt;" style="ellipse;whiteSpace=wrap;html=1;" vertex="1" parent="1">
          <mxGeometry x="145" y="-1280" width="120" height="50" as="geometry" />
        </mxCell>
        <mxCell id="Noz64joclwTQBEQuJF2k-3" value="&lt;b&gt;&lt;font style=&quot;font-size: 15px;&quot;&gt;Email_ID&lt;/font&gt;&lt;/b&gt;" style="ellipse;whiteSpace=wrap;html=1;" vertex="1" parent="1">
          <mxGeometry x="265" y="-1340" width="120" height="50" as="geometry" />
        </mxCell>
        <mxCell id="Noz64joclwTQBEQuJF2k-4" value="&lt;b&gt;&lt;font style=&quot;font-size: 15px;&quot;&gt;Phone_Number&lt;/font&gt;&lt;/b&gt;" style="ellipse;whiteSpace=wrap;html=1;" vertex="1" parent="1">
          <mxGeometry x="380" y="-1380" width="130" height="50" as="geometry" />
        </mxCell>
        <mxCell id="Noz64joclwTQBEQuJF2k-5" value="&lt;b&gt;&lt;font style=&quot;font-size: 15px;&quot;&gt;Last_Name&lt;/font&gt;&lt;/b&gt;" style="ellipse;whiteSpace=wrap;html=1;" vertex="1" parent="1">
          <mxGeometry x="515" y="-1420" width="120" height="50" as="geometry" />
        </mxCell>
        <mxCell id="Noz64joclwTQBEQuJF2k-6" value="&lt;b&gt;&lt;font style=&quot;font-size: 15px;&quot;&gt;First_Name&lt;/font&gt;&lt;/b&gt;" style="ellipse;whiteSpace=wrap;html=1;" vertex="1" parent="1">
          <mxGeometry x="655" y="-1450" width="120" height="50" as="geometry" />
        </mxCell>
        <mxCell id="Noz64joclwTQBEQuJF2k-7" value="&lt;u&gt;&lt;b&gt;&lt;font style=&quot;font-size: 15px;&quot;&gt;Employee_ID&lt;/font&gt;&lt;/b&gt;&lt;/u&gt;" style="ellipse;whiteSpace=wrap;html=1;" vertex="1" parent="1">
          <mxGeometry x="785" y="-1490" width="120" height="50" as="geometry" />
        </mxCell>
        <mxCell id="Noz64joclwTQBEQuJF2k-8" value="&lt;b&gt;&lt;font style=&quot;font-size: 15px;&quot;&gt;Username&lt;/font&gt;&lt;/b&gt;" style="ellipse;whiteSpace=wrap;html=1;" vertex="1" parent="1">
          <mxGeometry x="925" y="-1450" width="120" height="50" as="geometry" />
        </mxCell>
        <mxCell id="Noz64joclwTQBEQuJF2k-9" value="&lt;b&gt;&lt;font style=&quot;font-size: 15px;&quot;&gt;Password&lt;/font&gt;&lt;/b&gt;" style="ellipse;whiteSpace=wrap;html=1;" vertex="1" parent="1">
          <mxGeometry x="1055" y="-1420" width="120" height="50" as="geometry" />
        </mxCell>
        <mxCell id="Noz64joclwTQBEQuJF2k-10" value="&lt;b&gt;&lt;font style=&quot;font-size: 15px;&quot;&gt;Address&lt;/font&gt;&lt;/b&gt;" style="ellipse;whiteSpace=wrap;html=1;" vertex="1" parent="1">
          <mxGeometry x="1185" y="-1380" width="120" height="50" as="geometry" />
        </mxCell>
        <mxCell id="Noz64joclwTQBEQuJF2k-11" value="&lt;b&gt;&lt;font style=&quot;font-size: 15px;&quot;&gt;City&lt;/font&gt;&lt;/b&gt;" style="ellipse;whiteSpace=wrap;html=1;" vertex="1" parent="1">
          <mxGeometry x="1310" y="-1340" width="120" height="50" as="geometry" />
        </mxCell>
        <mxCell id="Noz64joclwTQBEQuJF2k-12" value="&lt;b&gt;&lt;font style=&quot;font-size: 15px;&quot;&gt;Salary&lt;/font&gt;&lt;/b&gt;" style="ellipse;whiteSpace=wrap;html=1;" vertex="1" parent="1">
          <mxGeometry x="1430" y="-1280" width="120" height="50" as="geometry" />
        </mxCell>
        <mxCell id="Noz64joclwTQBEQuJF2k-14" value="&lt;b&gt;&lt;font style=&quot;font-size: 15px;&quot;&gt;Gym_Member&lt;/font&gt;&lt;/b&gt;" style="rounded=0;whiteSpace=wrap;html=1;" vertex="1" parent="1">
          <mxGeometry x="50" y="-560" width="200" height="60" as="geometry" />
        </mxCell>
        <mxCell id="Noz64joclwTQBEQuJF2k-15" value="&lt;b&gt;&lt;font style=&quot;font-size: 15px;&quot;&gt;Salary&lt;/font&gt;&lt;/b&gt;" style="ellipse;whiteSpace=wrap;html=1;" vertex="1" parent="1">
          <mxGeometry x="-110" y="-850" width="120" height="50" as="geometry" />
        </mxCell>
        <mxCell id="Noz64joclwTQBEQuJF2k-16" value="&lt;b&gt;&lt;font style=&quot;font-size: 15px;&quot;&gt;Age&lt;/font&gt;&lt;/b&gt;" style="ellipse;whiteSpace=wrap;html=1;" vertex="1" parent="1">
          <mxGeometry x="-125" y="-260" width="120" height="50" as="geometry" />
        </mxCell>
        <mxCell id="Noz64joclwTQBEQuJF2k-17" value="&lt;b&gt;&lt;font style=&quot;font-size: 15px;&quot;&gt;City&lt;/font&gt;&lt;/b&gt;" style="ellipse;whiteSpace=wrap;html=1;" vertex="1" parent="1">
          <mxGeometry x="-240" y="-790" width="120" height="50" as="geometry" />
        </mxCell>
        <mxCell id="Noz64joclwTQBEQuJF2k-18" value="&lt;b&gt;&lt;font style=&quot;font-size: 15px;&quot;&gt;Email_ID&lt;/font&gt;&lt;/b&gt;" style="ellipse;whiteSpace=wrap;html=1;" vertex="1" parent="1">
          <mxGeometry x="-245" y="-320" width="120" height="50" as="geometry" />
        </mxCell>
        <mxCell id="Noz64joclwTQBEQuJF2k-19" value="&lt;b&gt;&lt;font style=&quot;font-size: 15px;&quot;&gt;Address&lt;/font&gt;&lt;/b&gt;" style="ellipse;whiteSpace=wrap;html=1;" vertex="1" parent="1">
          <mxGeometry x="-365" y="-730" width="120" height="50" as="geometry" />
        </mxCell>
        <mxCell id="Noz64joclwTQBEQuJF2k-20" value="&lt;b&gt;&lt;font style=&quot;font-size: 15px;&quot;&gt;First_Name&lt;/font&gt;&lt;/b&gt;" style="ellipse;whiteSpace=wrap;html=1;" vertex="1" parent="1">
          <mxGeometry x="-600" y="-500" width="120" height="50" as="geometry" />
        </mxCell>
        <mxCell id="Noz64joclwTQBEQuJF2k-21" value="&lt;b&gt;&lt;font style=&quot;font-size: 15px;&quot;&gt;Password&lt;/font&gt;&lt;/b&gt;" style="ellipse;whiteSpace=wrap;html=1;" vertex="1" parent="1">
          <mxGeometry x="-485" y="-670" width="120" height="50" as="geometry" />
        </mxCell>
        <mxCell id="Noz64joclwTQBEQuJF2k-22" value="&lt;u&gt;&lt;b&gt;&lt;font style=&quot;font-size: 15px;&quot;&gt;Member_ID&lt;/font&gt;&lt;/b&gt;&lt;/u&gt;" style="ellipse;whiteSpace=wrap;html=1;" vertex="1" parent="1">
          <mxGeometry x="-720" y="-555" width="120" height="50" as="geometry" />
        </mxCell>
        <mxCell id="Noz64joclwTQBEQuJF2k-23" value="&lt;b&gt;&lt;font style=&quot;font-size: 15px;&quot;&gt;Username&lt;/font&gt;&lt;/b&gt;" style="ellipse;whiteSpace=wrap;html=1;" vertex="1" parent="1">
          <mxGeometry x="-600" y="-610" width="120" height="50" as="geometry" />
        </mxCell>
        <mxCell id="Noz64joclwTQBEQuJF2k-24" value="&lt;b&gt;&lt;font style=&quot;font-size: 15px;&quot;&gt;Last_Name&lt;/font&gt;&lt;/b&gt;" style="ellipse;whiteSpace=wrap;html=1;" vertex="1" parent="1">
          <mxGeometry x="-480" y="-440" width="120" height="50" as="geometry" />
        </mxCell>
        <mxCell id="Noz64joclwTQBEQuJF2k-25" value="&lt;b&gt;&lt;font style=&quot;font-size: 15px;&quot;&gt;Phone_number&lt;/font&gt;&lt;/b&gt;" style="ellipse;whiteSpace=wrap;html=1;" vertex="1" parent="1">
          <mxGeometry x="-370" y="-380" width="140" height="50" as="geometry" />
        </mxCell>
        <mxCell id="Noz64joclwTQBEQuJF2k-26" value="&lt;b style=&quot;font-size: 15px;&quot;&gt;Used&amp;nbsp;&lt;br&gt;By&amp;nbsp;&lt;/b&gt;" style="rhombus;whiteSpace=wrap;html=1;" vertex="1" parent="1">
          <mxGeometry x="310" y="-900" width="105" height="80" as="geometry" />
        </mxCell>
        <mxCell id="Noz64joclwTQBEQuJF2k-27" value="&lt;b&gt;&lt;font style=&quot;font-size: 15px;&quot;&gt;Instructor&lt;/font&gt;&lt;/b&gt;" style="rounded=0;whiteSpace=wrap;html=1;" vertex="1" parent="1">
          <mxGeometry x="1570" y="-560" width="200" height="60" as="geometry" />
        </mxCell>
        <mxCell id="Noz64joclwTQBEQuJF2k-28" value="&lt;b&gt;&lt;font style=&quot;font-size: 15px;&quot;&gt;Salary&lt;/font&gt;&lt;/b&gt;" style="ellipse;whiteSpace=wrap;html=1;" vertex="1" parent="1">
          <mxGeometry x="1830" y="-850" width="120" height="50" as="geometry" />
        </mxCell>
        <mxCell id="Noz64joclwTQBEQuJF2k-29" value="&lt;b&gt;&lt;font style=&quot;font-size: 15px;&quot;&gt;Age&lt;/font&gt;&lt;/b&gt;" style="ellipse;whiteSpace=wrap;html=1;" vertex="1" parent="1">
          <mxGeometry x="1840" y="-270" width="120" height="50" as="geometry" />
        </mxCell>
        <mxCell id="Noz64joclwTQBEQuJF2k-30" value="&lt;b&gt;&lt;font style=&quot;font-size: 15px;&quot;&gt;City&lt;/font&gt;&lt;/b&gt;" style="ellipse;whiteSpace=wrap;html=1;" vertex="1" parent="1">
          <mxGeometry x="1960" y="-800" width="120" height="50" as="geometry" />
        </mxCell>
        <mxCell id="Noz64joclwTQBEQuJF2k-31" value="&lt;b&gt;&lt;font style=&quot;font-size: 15px;&quot;&gt;Email_ID&lt;/font&gt;&lt;/b&gt;" style="ellipse;whiteSpace=wrap;html=1;" vertex="1" parent="1">
          <mxGeometry x="1970" y="-330" width="120" height="50" as="geometry" />
        </mxCell>
        <mxCell id="Noz64joclwTQBEQuJF2k-32" value="&lt;b&gt;&lt;font style=&quot;font-size: 15px;&quot;&gt;Address&lt;/font&gt;&lt;/b&gt;" style="ellipse;whiteSpace=wrap;html=1;" vertex="1" parent="1">
          <mxGeometry x="2090" y="-740" width="120" height="50" as="geometry" />
        </mxCell>
        <mxCell id="Noz64joclwTQBEQuJF2k-33" value="&lt;b&gt;&lt;font style=&quot;font-size: 15px;&quot;&gt;First_Name&lt;/font&gt;&lt;/b&gt;" style="ellipse;whiteSpace=wrap;html=1;" vertex="1" parent="1">
          <mxGeometry x="2360" y="-500" width="120" height="50" as="geometry" />
        </mxCell>
        <mxCell id="Noz64joclwTQBEQuJF2k-34" value="&lt;b&gt;&lt;font style=&quot;font-size: 15px;&quot;&gt;Password&lt;/font&gt;&lt;/b&gt;" style="ellipse;whiteSpace=wrap;html=1;" vertex="1" parent="1">
          <mxGeometry x="2220" y="-680" width="120" height="50" as="geometry" />
        </mxCell>
        <mxCell id="Noz64joclwTQBEQuJF2k-35" value="&lt;u&gt;&lt;b&gt;&lt;font style=&quot;font-size: 15px;&quot;&gt;Instructor_ID&lt;/font&gt;&lt;/b&gt;&lt;/u&gt;" style="ellipse;whiteSpace=wrap;html=1;" vertex="1" parent="1">
          <mxGeometry x="2480" y="-555" width="120" height="50" as="geometry" />
        </mxCell>
        <mxCell id="Noz64joclwTQBEQuJF2k-36" value="&lt;b&gt;&lt;font style=&quot;font-size: 15px;&quot;&gt;Username&lt;/font&gt;&lt;/b&gt;" style="ellipse;whiteSpace=wrap;html=1;" vertex="1" parent="1">
          <mxGeometry x="2350" y="-620" width="120" height="50" as="geometry" />
        </mxCell>
        <mxCell id="Noz64joclwTQBEQuJF2k-37" value="&lt;b&gt;&lt;font style=&quot;font-size: 15px;&quot;&gt;Last_Name&lt;/font&gt;&lt;/b&gt;" style="ellipse;whiteSpace=wrap;html=1;" vertex="1" parent="1">
          <mxGeometry x="2220" y="-450" width="120" height="50" as="geometry" />
        </mxCell>
        <mxCell id="Noz64joclwTQBEQuJF2k-38" value="&lt;b&gt;&lt;font style=&quot;font-size: 15px;&quot;&gt;Phone_Number&lt;/font&gt;&lt;/b&gt;" style="ellipse;whiteSpace=wrap;html=1;" vertex="1" parent="1">
          <mxGeometry x="2090" y="-390" width="140" height="50" as="geometry" />
        </mxCell>
        <mxCell id="Noz64joclwTQBEQuJF2k-41" value="&lt;b style=&quot;font-size: 15px;&quot;&gt;Guided&amp;nbsp;&lt;br&gt;By&lt;/b&gt;" style="rhombus;whiteSpace=wrap;html=1;" vertex="1" parent="1">
          <mxGeometry x="1340" y="-900" width="105" height="80" as="geometry" />
        </mxCell>
        <mxCell id="Noz64joclwTQBEQuJF2k-42" value="&lt;b&gt;&lt;font style=&quot;font-size: 15px;&quot;&gt;Exercise&lt;/font&gt;&lt;/b&gt;" style="rounded=0;whiteSpace=wrap;html=1;" vertex="1" parent="1">
          <mxGeometry x="750" y="-560" width="200" height="60" as="geometry" />
        </mxCell>
        <mxCell id="Noz64joclwTQBEQuJF2k-43" value="&lt;b&gt;&lt;font style=&quot;font-size: 15px;&quot;&gt;View&lt;/font&gt;&lt;/b&gt;" style="rhombus;whiteSpace=wrap;html=1;" vertex="1" parent="1">
          <mxGeometry x="440" y="-570" width="105" height="80" as="geometry" />
        </mxCell>
        <mxCell id="Noz64joclwTQBEQuJF2k-44" value="&lt;b&gt;&lt;font style=&quot;font-size: 15px;&quot;&gt;Manages&lt;/font&gt;&lt;/b&gt;" style="rhombus;whiteSpace=wrap;html=1;" vertex="1" parent="1">
          <mxGeometry x="1235" y="-570" width="105" height="80" as="geometry" />
        </mxCell>
        <mxCell id="Noz64joclwTQBEQuJF2k-45" value="&lt;u&gt;&lt;b&gt;&lt;font style=&quot;font-size: 15px;&quot;&gt;Exercise_ID&lt;/font&gt;&lt;/b&gt;&lt;/u&gt;" style="ellipse;whiteSpace=wrap;html=1;" vertex="1" parent="1">
          <mxGeometry x="660" y="-420" width="120" height="50" as="geometry" />
        </mxCell>
        <mxCell id="Noz64joclwTQBEQuJF2k-46" value="&lt;b&gt;&lt;font style=&quot;font-size: 15px;&quot;&gt;Exercises_Type&lt;/font&gt;&lt;/b&gt;" style="ellipse;whiteSpace=wrap;html=1;" vertex="1" parent="1">
          <mxGeometry x="910" y="-420" width="140" height="50" as="geometry" />
        </mxCell>
        <mxCell id="Noz64joclwTQBEQuJF2k-47" value="&lt;b&gt;&lt;font style=&quot;font-size: 15px;&quot;&gt;Diet_Plan&lt;/font&gt;&lt;/b&gt;" style="rounded=0;whiteSpace=wrap;html=1;" vertex="1" parent="1">
          <mxGeometry x="750" y="-290" width="200" height="60" as="geometry" />
        </mxCell>
        <mxCell id="Noz64joclwTQBEQuJF2k-48" value="&lt;u&gt;&lt;b&gt;&lt;font style=&quot;font-size: 15px;&quot;&gt;Diet_Plan_ID&lt;/font&gt;&lt;/b&gt;&lt;/u&gt;" style="ellipse;whiteSpace=wrap;html=1;" vertex="1" parent="1">
          <mxGeometry x="660" y="-160" width="120" height="50" as="geometry" />
        </mxCell>
        <mxCell id="Noz64joclwTQBEQuJF2k-49" value="&lt;b&gt;&lt;font style=&quot;font-size: 15px;&quot;&gt;Diet_Types&lt;/font&gt;&lt;/b&gt;" style="ellipse;whiteSpace=wrap;html=1;" vertex="1" parent="1">
          <mxGeometry x="920" y="-160" width="120" height="50" as="geometry" />
        </mxCell>
        <mxCell id="Noz64joclwTQBEQuJF2k-50" value="&lt;b&gt;&lt;font style=&quot;font-size: 15px;&quot;&gt;View&lt;/font&gt;&lt;/b&gt;" style="rhombus;whiteSpace=wrap;html=1;" vertex="1" parent="1">
          <mxGeometry x="310" y="-300" width="105" height="80" as="geometry" />
        </mxCell>
        <mxCell id="Noz64joclwTQBEQuJF2k-51" value="&lt;b&gt;&lt;font style=&quot;font-size: 15px;&quot;&gt;Manages&lt;/font&gt;&lt;/b&gt;" style="rhombus;whiteSpace=wrap;html=1;" vertex="1" parent="1">
          <mxGeometry x="1340" y="-300" width="105" height="80" as="geometry" />
        </mxCell>
        <mxCell id="Noz64joclwTQBEQuJF2k-52" value="&lt;b style=&quot;font-size: 15px;&quot;&gt;Take&amp;nbsp;&lt;br&gt;Membership&lt;/b&gt;" style="rhombus;whiteSpace=wrap;html=1;" vertex="1" parent="1">
          <mxGeometry x="70" y="-130" width="160" height="100" as="geometry" />
        </mxCell>
        <mxCell id="Noz64joclwTQBEQuJF2k-53" value="&lt;b&gt;&lt;font style=&quot;font-size: 15px;&quot;&gt;Membership&lt;/font&gt;&lt;/b&gt;" style="rounded=0;whiteSpace=wrap;html=1;" vertex="1" parent="1">
          <mxGeometry x="750" y="-10" width="200" height="60" as="geometry" />
        </mxCell>
        <mxCell id="Noz64joclwTQBEQuJF2k-54" value="&lt;b&gt;&lt;font style=&quot;font-size: 15px;&quot;&gt;Assign&lt;/font&gt;&lt;/b&gt;" style="rhombus;whiteSpace=wrap;html=1;" vertex="1" parent="1">
          <mxGeometry x="1617.5" y="-130" width="105" height="80" as="geometry" />
        </mxCell>
        <mxCell id="Noz64joclwTQBEQuJF2k-55" value="&lt;b&gt;&lt;font style=&quot;font-size: 15px;&quot;&gt;Instructor_ID&lt;/font&gt;&lt;/b&gt;" style="ellipse;whiteSpace=wrap;html=1;" vertex="1" parent="1">
          <mxGeometry x="460" y="100" width="120" height="50" as="geometry" />
        </mxCell>
        <mxCell id="Noz64joclwTQBEQuJF2k-56" value="&lt;b&gt;&lt;font style=&quot;font-size: 15px;&quot;&gt;Membership_Type&lt;/font&gt;&lt;/b&gt;" style="ellipse;whiteSpace=wrap;html=1;" vertex="1" parent="1">
          <mxGeometry x="570" y="160" width="160" height="50" as="geometry" />
        </mxCell>
        <mxCell id="Noz64joclwTQBEQuJF2k-57" value="&lt;b&gt;&lt;font style=&quot;font-size: 15px;&quot;&gt;Cost&lt;/font&gt;&lt;/b&gt;" style="ellipse;whiteSpace=wrap;html=1;" vertex="1" parent="1">
          <mxGeometry x="870" y="220" width="120" height="50" as="geometry" />
        </mxCell>
        <mxCell id="Noz64joclwTQBEQuJF2k-58" value="&lt;u&gt;&lt;b&gt;&lt;font style=&quot;font-size: 15px;&quot;&gt;Membership_ID&lt;/font&gt;&lt;/b&gt;&lt;/u&gt;" style="ellipse;whiteSpace=wrap;html=1;" vertex="1" parent="1">
          <mxGeometry x="700" y="220" width="140" height="50" as="geometry" />
        </mxCell>
        <mxCell id="Noz64joclwTQBEQuJF2k-59" value="&lt;b&gt;&lt;font style=&quot;font-size: 15px;&quot;&gt;Time&lt;/font&gt;&lt;/b&gt;" style="ellipse;whiteSpace=wrap;html=1;" vertex="1" parent="1">
          <mxGeometry x="1000" y="160" width="120" height="50" as="geometry" />
        </mxCell>
        <mxCell id="Noz64joclwTQBEQuJF2k-60" value="&lt;b&gt;&lt;font style=&quot;font-size: 15px;&quot;&gt;Date&lt;/font&gt;&lt;/b&gt;" style="ellipse;whiteSpace=wrap;html=1;" vertex="1" parent="1">
          <mxGeometry x="1130" y="100" width="120" height="50" as="geometry" />
        </mxCell>
        <mxCell id="Noz64joclwTQBEQuJF2k-62" value="&lt;b&gt;&lt;font style=&quot;font-size: 15px;&quot;&gt;Gym&lt;/font&gt;&lt;/b&gt;" style="rounded=0;whiteSpace=wrap;html=1;" vertex="1" parent="1">
          <mxGeometry x="747.5" y="-890" width="200" height="60" as="geometry" />
        </mxCell>
        <mxCell id="Noz64joclwTQBEQuJF2k-63" value="&lt;u&gt;&lt;b&gt;&lt;font style=&quot;font-size: 15px;&quot;&gt;Gym_ID&lt;/font&gt;&lt;/b&gt;&lt;/u&gt;" style="ellipse;whiteSpace=wrap;html=1;" vertex="1" parent="1">
          <mxGeometry x="657.5" y="-750" width="120" height="50" as="geometry" />
        </mxCell>
        <mxCell id="Noz64joclwTQBEQuJF2k-64" value="&lt;b&gt;&lt;font style=&quot;font-size: 15px;&quot;&gt;Address&lt;/font&gt;&lt;/b&gt;" style="ellipse;whiteSpace=wrap;html=1;" vertex="1" parent="1">
          <mxGeometry x="917.5" y="-750" width="120" height="50" as="geometry" />
        </mxCell>
        <mxCell id="Noz64joclwTQBEQuJF2k-65" value="&lt;b&gt;&lt;font style=&quot;font-size: 15px;&quot;&gt;Manages&lt;/font&gt;&lt;/b&gt;" style="rhombus;whiteSpace=wrap;html=1;" vertex="1" parent="1">
          <mxGeometry x="795" y="-1070" width="105" height="80" as="geometry" />
        </mxCell>
        <mxCell id="Noz64joclwTQBEQuJF2k-66" value="&lt;b&gt;&lt;font style=&quot;font-size: 15px;&quot;&gt;Name&lt;/font&gt;&lt;/b&gt;" style="ellipse;whiteSpace=wrap;html=1;" vertex="1" parent="1">
          <mxGeometry x="785" y="-700" width="120" height="50" as="geometry" />
        </mxCell>
        <mxCell id="Noz64joclwTQBEQuJF2k-67" value="" style="endArrow=none;html=1;rounded=0;exitX=0.973;exitY=0.651;exitDx=0;exitDy=0;exitPerimeter=0;entryX=0;entryY=0.5;entryDx=0;entryDy=0;" edge="1" parent="1" source="Noz64joclwTQBEQuJF2k-2" target="Noz64joclwTQBEQuJF2k-1">
          <mxGeometry width="50" height="50" relative="1" as="geometry">
            <mxPoint x="570" y="-1090" as="sourcePoint" />
            <mxPoint x="620" y="-1140" as="targetPoint" />
          </mxGeometry>
        </mxCell>
        <mxCell id="Noz64joclwTQBEQuJF2k-68" value="" style="endArrow=none;html=1;rounded=0;" edge="1" parent="1" source="Noz64joclwTQBEQuJF2k-3">
          <mxGeometry width="50" height="50" relative="1" as="geometry">
            <mxPoint x="272" y="-1237" as="sourcePoint" />
            <mxPoint x="750" y="-1200" as="targetPoint" />
          </mxGeometry>
        </mxCell>
        <mxCell id="Noz64joclwTQBEQuJF2k-69" value="" style="endArrow=none;html=1;rounded=0;exitX=1;exitY=1;exitDx=0;exitDy=0;entryX=0;entryY=0.5;entryDx=0;entryDy=0;" edge="1" parent="1" source="Noz64joclwTQBEQuJF2k-4" target="Noz64joclwTQBEQuJF2k-1">
          <mxGeometry width="50" height="50" relative="1" as="geometry">
            <mxPoint x="385" y="-1291" as="sourcePoint" />
            <mxPoint x="760" y="-1190" as="targetPoint" />
          </mxGeometry>
        </mxCell>
        <mxCell id="Noz64joclwTQBEQuJF2k-70" value="" style="endArrow=none;html=1;rounded=0;exitX=0.609;exitY=1.051;exitDx=0;exitDy=0;entryX=0.5;entryY=0;entryDx=0;entryDy=0;exitPerimeter=0;" edge="1" parent="1" source="Noz64joclwTQBEQuJF2k-5" target="Noz64joclwTQBEQuJF2k-1">
          <mxGeometry width="50" height="50" relative="1" as="geometry">
            <mxPoint x="498" y="-1328" as="sourcePoint" />
            <mxPoint x="758" y="-1190" as="targetPoint" />
          </mxGeometry>
        </mxCell>
        <mxCell id="Noz64joclwTQBEQuJF2k-71" value="" style="endArrow=none;html=1;rounded=0;exitX=0.5;exitY=1;exitDx=0;exitDy=0;entryX=0.5;entryY=0;entryDx=0;entryDy=0;" edge="1" parent="1" source="Noz64joclwTQBEQuJF2k-6" target="Noz64joclwTQBEQuJF2k-1">
          <mxGeometry width="50" height="50" relative="1" as="geometry">
            <mxPoint x="598" y="-1357" as="sourcePoint" />
            <mxPoint x="858" y="-1220" as="targetPoint" />
          </mxGeometry>
        </mxCell>
        <mxCell id="Noz64joclwTQBEQuJF2k-72" value="" style="endArrow=none;html=1;rounded=0;exitX=0.561;exitY=1.061;exitDx=0;exitDy=0;exitPerimeter=0;entryX=0.5;entryY=0;entryDx=0;entryDy=0;" edge="1" parent="1" source="Noz64joclwTQBEQuJF2k-7" target="Noz64joclwTQBEQuJF2k-1">
          <mxGeometry width="50" height="50" relative="1" as="geometry">
            <mxPoint x="725" y="-1390" as="sourcePoint" />
            <mxPoint x="850" y="-1240" as="targetPoint" />
          </mxGeometry>
        </mxCell>
        <mxCell id="Noz64joclwTQBEQuJF2k-74" value="" style="endArrow=none;html=1;rounded=0;exitX=0.5;exitY=1;exitDx=0;exitDy=0;entryX=0.5;entryY=0;entryDx=0;entryDy=0;" edge="1" parent="1" source="Noz64joclwTQBEQuJF2k-8" target="Noz64joclwTQBEQuJF2k-1">
          <mxGeometry width="50" height="50" relative="1" as="geometry">
            <mxPoint x="862" y="-1427" as="sourcePoint" />
            <mxPoint x="858" y="-1220" as="targetPoint" />
          </mxGeometry>
        </mxCell>
        <mxCell id="Noz64joclwTQBEQuJF2k-75" value="" style="endArrow=none;html=1;rounded=0;exitX=0.5;exitY=1;exitDx=0;exitDy=0;entryX=0.5;entryY=0;entryDx=0;entryDy=0;" edge="1" parent="1" source="Noz64joclwTQBEQuJF2k-9" target="Noz64joclwTQBEQuJF2k-1">
          <mxGeometry width="50" height="50" relative="1" as="geometry">
            <mxPoint x="995" y="-1390" as="sourcePoint" />
            <mxPoint x="858" y="-1220" as="targetPoint" />
          </mxGeometry>
        </mxCell>
        <mxCell id="Noz64joclwTQBEQuJF2k-76" value="" style="endArrow=none;html=1;rounded=0;exitX=0;exitY=1;exitDx=0;exitDy=0;" edge="1" parent="1" source="Noz64joclwTQBEQuJF2k-10">
          <mxGeometry width="50" height="50" relative="1" as="geometry">
            <mxPoint x="1125" y="-1360" as="sourcePoint" />
            <mxPoint x="950" y="-1200" as="targetPoint" />
          </mxGeometry>
        </mxCell>
        <mxCell id="Noz64joclwTQBEQuJF2k-77" value="" style="endArrow=none;html=1;rounded=0;exitX=0;exitY=1;exitDx=0;exitDy=0;" edge="1" parent="1" source="Noz64joclwTQBEQuJF2k-11">
          <mxGeometry width="50" height="50" relative="1" as="geometry">
            <mxPoint x="1240" y="-1317" as="sourcePoint" />
            <mxPoint x="950" y="-1200" as="targetPoint" />
          </mxGeometry>
        </mxCell>
        <mxCell id="Noz64joclwTQBEQuJF2k-78" value="" style="endArrow=none;html=1;rounded=0;exitX=0;exitY=1;exitDx=0;exitDy=0;" edge="1" parent="1" source="Noz64joclwTQBEQuJF2k-12">
          <mxGeometry width="50" height="50" relative="1" as="geometry">
            <mxPoint x="1380" y="-1280" as="sourcePoint" />
            <mxPoint x="950" y="-1200" as="targetPoint" />
          </mxGeometry>
        </mxCell>
        <mxCell id="Noz64joclwTQBEQuJF2k-79" value="" style="endArrow=none;html=1;rounded=0;entryX=0.5;entryY=0;entryDx=0;entryDy=0;exitX=0.5;exitY=1;exitDx=0;exitDy=0;" edge="1" parent="1" source="Noz64joclwTQBEQuJF2k-62" target="Noz64joclwTQBEQuJF2k-63">
          <mxGeometry width="50" height="50" relative="1" as="geometry">
            <mxPoint x="790" y="-840" as="sourcePoint" />
            <mxPoint x="840" y="-890" as="targetPoint" />
          </mxGeometry>
        </mxCell>
        <mxCell id="Noz64joclwTQBEQuJF2k-80" value="" style="endArrow=none;html=1;rounded=0;entryX=0.5;entryY=0;entryDx=0;entryDy=0;" edge="1" parent="1" target="Noz64joclwTQBEQuJF2k-66">
          <mxGeometry width="50" height="50" relative="1" as="geometry">
            <mxPoint x="845" y="-830" as="sourcePoint" />
            <mxPoint x="728" y="-740" as="targetPoint" />
          </mxGeometry>
        </mxCell>
        <mxCell id="Noz64joclwTQBEQuJF2k-81" value="" style="endArrow=none;html=1;rounded=0;entryX=0.5;entryY=0;entryDx=0;entryDy=0;" edge="1" parent="1" target="Noz64joclwTQBEQuJF2k-64">
          <mxGeometry width="50" height="50" relative="1" as="geometry">
            <mxPoint x="850" y="-830" as="sourcePoint" />
            <mxPoint x="855" y="-690" as="targetPoint" />
          </mxGeometry>
        </mxCell>
        <mxCell id="Noz64joclwTQBEQuJF2k-82" value="" style="endArrow=none;html=1;rounded=0;entryX=0.5;entryY=0;entryDx=0;entryDy=0;exitX=0.5;exitY=1;exitDx=0;exitDy=0;" edge="1" parent="1" source="Noz64joclwTQBEQuJF2k-42" target="Noz64joclwTQBEQuJF2k-45">
          <mxGeometry width="50" height="50" relative="1" as="geometry">
            <mxPoint x="858" y="-820" as="sourcePoint" />
            <mxPoint x="728" y="-740" as="targetPoint" />
          </mxGeometry>
        </mxCell>
        <mxCell id="Noz64joclwTQBEQuJF2k-83" value="" style="endArrow=none;html=1;rounded=0;exitX=0.5;exitY=0;exitDx=0;exitDy=0;" edge="1" parent="1" source="Noz64joclwTQBEQuJF2k-46">
          <mxGeometry width="50" height="50" relative="1" as="geometry">
            <mxPoint x="860" y="-490" as="sourcePoint" />
            <mxPoint x="850" y="-500" as="targetPoint" />
          </mxGeometry>
        </mxCell>
        <mxCell id="Noz64joclwTQBEQuJF2k-84" value="" style="endArrow=none;html=1;rounded=0;entryX=0.5;entryY=0;entryDx=0;entryDy=0;exitX=0.5;exitY=1;exitDx=0;exitDy=0;" edge="1" parent="1" source="Noz64joclwTQBEQuJF2k-47" target="Noz64joclwTQBEQuJF2k-48">
          <mxGeometry width="50" height="50" relative="1" as="geometry">
            <mxPoint x="860" y="-490" as="sourcePoint" />
            <mxPoint x="730" y="-410" as="targetPoint" />
          </mxGeometry>
        </mxCell>
        <mxCell id="Noz64joclwTQBEQuJF2k-86" value="" style="endArrow=none;html=1;rounded=0;entryX=0.5;entryY=0;entryDx=0;entryDy=0;" edge="1" parent="1" target="Noz64joclwTQBEQuJF2k-49">
          <mxGeometry width="50" height="50" relative="1" as="geometry">
            <mxPoint x="850" y="-230" as="sourcePoint" />
            <mxPoint x="970" y="-170" as="targetPoint" />
          </mxGeometry>
        </mxCell>
        <mxCell id="Noz64joclwTQBEQuJF2k-87" value="" style="endArrow=none;html=1;rounded=0;entryX=1;entryY=0.5;entryDx=0;entryDy=0;exitX=0.5;exitY=1;exitDx=0;exitDy=0;" edge="1" parent="1" source="Noz64joclwTQBEQuJF2k-53" target="Noz64joclwTQBEQuJF2k-55">
          <mxGeometry width="50" height="50" relative="1" as="geometry">
            <mxPoint x="860" y="-220" as="sourcePoint" />
            <mxPoint x="730" y="-150" as="targetPoint" />
          </mxGeometry>
        </mxCell>
        <mxCell id="Noz64joclwTQBEQuJF2k-88" value="" style="endArrow=none;html=1;rounded=0;entryX=1;entryY=0;entryDx=0;entryDy=0;exitX=0.5;exitY=1;exitDx=0;exitDy=0;" edge="1" parent="1" source="Noz64joclwTQBEQuJF2k-53" target="Noz64joclwTQBEQuJF2k-56">
          <mxGeometry width="50" height="50" relative="1" as="geometry">
            <mxPoint x="860" y="60" as="sourcePoint" />
            <mxPoint x="590" y="135" as="targetPoint" />
          </mxGeometry>
        </mxCell>
        <mxCell id="Noz64joclwTQBEQuJF2k-89" value="" style="endArrow=none;html=1;rounded=0;entryX=0.5;entryY=0;entryDx=0;entryDy=0;" edge="1" parent="1" target="Noz64joclwTQBEQuJF2k-58">
          <mxGeometry width="50" height="50" relative="1" as="geometry">
            <mxPoint x="850" y="50" as="sourcePoint" />
            <mxPoint x="702" y="177" as="targetPoint" />
          </mxGeometry>
        </mxCell>
        <mxCell id="Noz64joclwTQBEQuJF2k-90" value="" style="endArrow=none;html=1;rounded=0;entryX=0.5;entryY=0;entryDx=0;entryDy=0;" edge="1" parent="1" target="Noz64joclwTQBEQuJF2k-57">
          <mxGeometry width="50" height="50" relative="1" as="geometry">
            <mxPoint x="850" y="50" as="sourcePoint" />
            <mxPoint x="780" y="230" as="targetPoint" />
          </mxGeometry>
        </mxCell>
        <mxCell id="Noz64joclwTQBEQuJF2k-91" value="" style="endArrow=none;html=1;rounded=0;entryX=0;entryY=0;entryDx=0;entryDy=0;" edge="1" parent="1" target="Noz64joclwTQBEQuJF2k-59">
          <mxGeometry width="50" height="50" relative="1" as="geometry">
            <mxPoint x="850" y="50" as="sourcePoint" />
            <mxPoint x="940" y="230" as="targetPoint" />
          </mxGeometry>
        </mxCell>
        <mxCell id="Noz64joclwTQBEQuJF2k-92" value="" style="endArrow=none;html=1;rounded=0;entryX=0;entryY=0.5;entryDx=0;entryDy=0;" edge="1" parent="1" target="Noz64joclwTQBEQuJF2k-60">
          <mxGeometry width="50" height="50" relative="1" as="geometry">
            <mxPoint x="850" y="50" as="sourcePoint" />
            <mxPoint x="1028" y="177" as="targetPoint" />
          </mxGeometry>
        </mxCell>
        <mxCell id="Noz64joclwTQBEQuJF2k-93" value="" style="endArrow=none;html=1;rounded=0;exitX=0.5;exitY=0;exitDx=0;exitDy=0;entryX=0.25;entryY=1;entryDx=0;entryDy=0;" edge="1" parent="1" source="Noz64joclwTQBEQuJF2k-16" target="Noz64joclwTQBEQuJF2k-14">
          <mxGeometry width="50" height="50" relative="1" as="geometry">
            <mxPoint x="40" y="-410" as="sourcePoint" />
            <mxPoint x="90" y="-460" as="targetPoint" />
          </mxGeometry>
        </mxCell>
        <mxCell id="Noz64joclwTQBEQuJF2k-94" value="" style="endArrow=none;html=1;rounded=0;exitX=1;exitY=0;exitDx=0;exitDy=0;entryX=0.25;entryY=1;entryDx=0;entryDy=0;" edge="1" parent="1" source="Noz64joclwTQBEQuJF2k-18" target="Noz64joclwTQBEQuJF2k-14">
          <mxGeometry width="50" height="50" relative="1" as="geometry">
            <mxPoint x="-55" y="-250" as="sourcePoint" />
            <mxPoint x="150" y="-500" as="targetPoint" />
          </mxGeometry>
        </mxCell>
        <mxCell id="Noz64joclwTQBEQuJF2k-95" value="" style="endArrow=none;html=1;rounded=0;exitX=1;exitY=0.5;exitDx=0;exitDy=0;entryX=0.25;entryY=1;entryDx=0;entryDy=0;" edge="1" parent="1" source="Noz64joclwTQBEQuJF2k-25" target="Noz64joclwTQBEQuJF2k-14">
          <mxGeometry width="50" height="50" relative="1" as="geometry">
            <mxPoint x="-132" y="-303" as="sourcePoint" />
            <mxPoint x="160" y="-490" as="targetPoint" />
          </mxGeometry>
        </mxCell>
        <mxCell id="Noz64joclwTQBEQuJF2k-96" value="" style="endArrow=none;html=1;rounded=0;exitX=1;exitY=0.5;exitDx=0;exitDy=0;entryX=0;entryY=1;entryDx=0;entryDy=0;" edge="1" parent="1" source="Noz64joclwTQBEQuJF2k-24" target="Noz64joclwTQBEQuJF2k-14">
          <mxGeometry width="50" height="50" relative="1" as="geometry">
            <mxPoint x="-230" y="-345" as="sourcePoint" />
            <mxPoint x="160" y="-490" as="targetPoint" />
          </mxGeometry>
        </mxCell>
        <mxCell id="Noz64joclwTQBEQuJF2k-97" value="" style="endArrow=none;html=1;rounded=0;exitX=1;exitY=0.5;exitDx=0;exitDy=0;entryX=0;entryY=0.75;entryDx=0;entryDy=0;" edge="1" parent="1" source="Noz64joclwTQBEQuJF2k-20" target="Noz64joclwTQBEQuJF2k-14">
          <mxGeometry width="50" height="50" relative="1" as="geometry">
            <mxPoint x="-350" y="-405" as="sourcePoint" />
            <mxPoint x="60" y="-490" as="targetPoint" />
          </mxGeometry>
        </mxCell>
        <mxCell id="Noz64joclwTQBEQuJF2k-98" value="" style="endArrow=none;html=1;rounded=0;exitX=1;exitY=0.5;exitDx=0;exitDy=0;entryX=0;entryY=0.5;entryDx=0;entryDy=0;" edge="1" parent="1" source="Noz64joclwTQBEQuJF2k-22" target="Noz64joclwTQBEQuJF2k-14">
          <mxGeometry width="50" height="50" relative="1" as="geometry">
            <mxPoint x="-470" y="-465" as="sourcePoint" />
            <mxPoint x="60" y="-505" as="targetPoint" />
          </mxGeometry>
        </mxCell>
        <mxCell id="Noz64joclwTQBEQuJF2k-99" value="" style="endArrow=none;html=1;rounded=0;exitX=1;exitY=0.5;exitDx=0;exitDy=0;entryX=0;entryY=0.25;entryDx=0;entryDy=0;" edge="1" parent="1" source="Noz64joclwTQBEQuJF2k-23" target="Noz64joclwTQBEQuJF2k-14">
          <mxGeometry width="50" height="50" relative="1" as="geometry">
            <mxPoint x="-590" y="-520" as="sourcePoint" />
            <mxPoint x="60" y="-520" as="targetPoint" />
          </mxGeometry>
        </mxCell>
        <mxCell id="Noz64joclwTQBEQuJF2k-100" value="" style="endArrow=none;html=1;rounded=0;exitX=1;exitY=0.5;exitDx=0;exitDy=0;" edge="1" parent="1" source="Noz64joclwTQBEQuJF2k-21">
          <mxGeometry width="50" height="50" relative="1" as="geometry">
            <mxPoint x="-470" y="-575" as="sourcePoint" />
            <mxPoint x="50" y="-560" as="targetPoint" />
          </mxGeometry>
        </mxCell>
        <mxCell id="Noz64joclwTQBEQuJF2k-101" value="" style="endArrow=none;html=1;rounded=0;exitX=1;exitY=1;exitDx=0;exitDy=0;entryX=0.25;entryY=0;entryDx=0;entryDy=0;" edge="1" parent="1" source="Noz64joclwTQBEQuJF2k-19" target="Noz64joclwTQBEQuJF2k-14">
          <mxGeometry width="50" height="50" relative="1" as="geometry">
            <mxPoint x="-355" y="-635" as="sourcePoint" />
            <mxPoint x="60" y="-550" as="targetPoint" />
          </mxGeometry>
        </mxCell>
        <mxCell id="Noz64joclwTQBEQuJF2k-103" value="" style="endArrow=none;html=1;rounded=0;exitX=1;exitY=1;exitDx=0;exitDy=0;entryX=0.25;entryY=0;entryDx=0;entryDy=0;" edge="1" parent="1" source="Noz64joclwTQBEQuJF2k-17" target="Noz64joclwTQBEQuJF2k-14">
          <mxGeometry width="50" height="50" relative="1" as="geometry">
            <mxPoint x="-252" y="-677" as="sourcePoint" />
            <mxPoint x="150" y="-560" as="targetPoint" />
          </mxGeometry>
        </mxCell>
        <mxCell id="Noz64joclwTQBEQuJF2k-104" value="" style="endArrow=none;html=1;rounded=0;exitX=1;exitY=1;exitDx=0;exitDy=0;entryX=0.25;entryY=0;entryDx=0;entryDy=0;" edge="1" parent="1" source="Noz64joclwTQBEQuJF2k-15" target="Noz64joclwTQBEQuJF2k-14">
          <mxGeometry width="50" height="50" relative="1" as="geometry">
            <mxPoint x="-127" y="-737" as="sourcePoint" />
            <mxPoint x="150" y="-560" as="targetPoint" />
          </mxGeometry>
        </mxCell>
        <mxCell id="Noz64joclwTQBEQuJF2k-105" value="" style="endArrow=none;html=1;rounded=0;exitX=0.75;exitY=0;exitDx=0;exitDy=0;entryX=0;entryY=1;entryDx=0;entryDy=0;" edge="1" parent="1" source="Noz64joclwTQBEQuJF2k-27" target="Noz64joclwTQBEQuJF2k-28">
          <mxGeometry width="50" height="50" relative="1" as="geometry">
            <mxPoint x="1970" y="-410" as="sourcePoint" />
            <mxPoint x="1890" y="-800" as="targetPoint" />
          </mxGeometry>
        </mxCell>
        <mxCell id="Noz64joclwTQBEQuJF2k-107" value="" style="endArrow=none;html=1;rounded=0;entryX=0;entryY=1;entryDx=0;entryDy=0;exitX=0.75;exitY=0;exitDx=0;exitDy=0;" edge="1" parent="1" source="Noz64joclwTQBEQuJF2k-27" target="Noz64joclwTQBEQuJF2k-32">
          <mxGeometry width="50" height="50" relative="1" as="geometry">
            <mxPoint x="1690" y="-560" as="sourcePoint" />
            <mxPoint x="1987" y="-747" as="targetPoint" />
          </mxGeometry>
        </mxCell>
        <mxCell id="Noz64joclwTQBEQuJF2k-108" value="" style="endArrow=none;html=1;rounded=0;entryX=0;entryY=1;entryDx=0;entryDy=0;exitX=0.75;exitY=0;exitDx=0;exitDy=0;" edge="1" parent="1" source="Noz64joclwTQBEQuJF2k-27" target="Noz64joclwTQBEQuJF2k-30">
          <mxGeometry width="50" height="50" relative="1" as="geometry">
            <mxPoint x="1680" y="-555" as="sourcePoint" />
            <mxPoint x="2117" y="-687" as="targetPoint" />
          </mxGeometry>
        </mxCell>
        <mxCell id="Noz64joclwTQBEQuJF2k-109" value="" style="endArrow=none;html=1;rounded=0;entryX=0;entryY=0.5;entryDx=0;entryDy=0;exitX=1;exitY=0;exitDx=0;exitDy=0;" edge="1" parent="1" source="Noz64joclwTQBEQuJF2k-27" target="Noz64joclwTQBEQuJF2k-34">
          <mxGeometry width="50" height="50" relative="1" as="geometry">
            <mxPoint x="1680" y="-555" as="sourcePoint" />
            <mxPoint x="1987" y="-747" as="targetPoint" />
          </mxGeometry>
        </mxCell>
        <mxCell id="Noz64joclwTQBEQuJF2k-110" value="" style="endArrow=none;html=1;rounded=0;entryX=0;entryY=0.5;entryDx=0;entryDy=0;exitX=1;exitY=0.25;exitDx=0;exitDy=0;" edge="1" parent="1" source="Noz64joclwTQBEQuJF2k-27" target="Noz64joclwTQBEQuJF2k-36">
          <mxGeometry width="50" height="50" relative="1" as="geometry">
            <mxPoint x="1790" y="-535" as="sourcePoint" />
            <mxPoint x="2230" y="-645" as="targetPoint" />
          </mxGeometry>
        </mxCell>
        <mxCell id="Noz64joclwTQBEQuJF2k-111" value="" style="endArrow=none;html=1;rounded=0;entryX=0;entryY=0.5;entryDx=0;entryDy=0;exitX=1;exitY=0.5;exitDx=0;exitDy=0;" edge="1" parent="1" source="Noz64joclwTQBEQuJF2k-27" target="Noz64joclwTQBEQuJF2k-35">
          <mxGeometry width="50" height="50" relative="1" as="geometry">
            <mxPoint x="1780" y="-540" as="sourcePoint" />
            <mxPoint x="2360" y="-585" as="targetPoint" />
          </mxGeometry>
        </mxCell>
        <mxCell id="Noz64joclwTQBEQuJF2k-113" value="" style="endArrow=none;html=1;rounded=0;entryX=0;entryY=0.5;entryDx=0;entryDy=0;exitX=1;exitY=0.75;exitDx=0;exitDy=0;" edge="1" parent="1" source="Noz64joclwTQBEQuJF2k-27" target="Noz64joclwTQBEQuJF2k-33">
          <mxGeometry width="50" height="50" relative="1" as="geometry">
            <mxPoint x="1780" y="-525" as="sourcePoint" />
            <mxPoint x="2490" y="-520" as="targetPoint" />
          </mxGeometry>
        </mxCell>
        <mxCell id="Noz64joclwTQBEQuJF2k-114" value="" style="endArrow=none;html=1;rounded=0;entryX=0;entryY=0.5;entryDx=0;entryDy=0;exitX=1;exitY=1;exitDx=0;exitDy=0;" edge="1" parent="1" source="Noz64joclwTQBEQuJF2k-27" target="Noz64joclwTQBEQuJF2k-37">
          <mxGeometry width="50" height="50" relative="1" as="geometry">
            <mxPoint x="1780" y="-510" as="sourcePoint" />
            <mxPoint x="2370" y="-465" as="targetPoint" />
          </mxGeometry>
        </mxCell>
        <mxCell id="Noz64joclwTQBEQuJF2k-115" value="" style="endArrow=none;html=1;rounded=0;entryX=0;entryY=0;entryDx=0;entryDy=0;exitX=0.75;exitY=1;exitDx=0;exitDy=0;" edge="1" parent="1" source="Noz64joclwTQBEQuJF2k-27" target="Noz64joclwTQBEQuJF2k-38">
          <mxGeometry width="50" height="50" relative="1" as="geometry">
            <mxPoint x="1780" y="-495" as="sourcePoint" />
            <mxPoint x="2230" y="-415" as="targetPoint" />
          </mxGeometry>
        </mxCell>
        <mxCell id="Noz64joclwTQBEQuJF2k-116" value="" style="endArrow=none;html=1;rounded=0;entryX=0;entryY=0;entryDx=0;entryDy=0;exitX=0.75;exitY=1;exitDx=0;exitDy=0;" edge="1" parent="1" source="Noz64joclwTQBEQuJF2k-27" target="Noz64joclwTQBEQuJF2k-31">
          <mxGeometry width="50" height="50" relative="1" as="geometry">
            <mxPoint x="1720" y="-490" as="sourcePoint" />
            <mxPoint x="2127" y="-373" as="targetPoint" />
          </mxGeometry>
        </mxCell>
        <mxCell id="Noz64joclwTQBEQuJF2k-117" value="" style="endArrow=none;html=1;rounded=0;entryX=0;entryY=0;entryDx=0;entryDy=0;exitX=0.75;exitY=1;exitDx=0;exitDy=0;" edge="1" parent="1" source="Noz64joclwTQBEQuJF2k-27" target="Noz64joclwTQBEQuJF2k-29">
          <mxGeometry width="50" height="50" relative="1" as="geometry">
            <mxPoint x="1680" y="-495" as="sourcePoint" />
            <mxPoint x="1997" y="-313" as="targetPoint" />
          </mxGeometry>
        </mxCell>
        <mxCell id="Noz64joclwTQBEQuJF2k-118" value="" style="endArrow=none;html=1;rounded=0;entryX=0.5;entryY=1;entryDx=0;entryDy=0;exitX=0.5;exitY=0;exitDx=0;exitDy=0;" edge="1" parent="1" source="Noz64joclwTQBEQuJF2k-65" target="Noz64joclwTQBEQuJF2k-1">
          <mxGeometry width="50" height="50" relative="1" as="geometry">
            <mxPoint x="980" y="-920" as="sourcePoint" />
            <mxPoint x="1030" y="-970" as="targetPoint" />
          </mxGeometry>
        </mxCell>
        <mxCell id="Noz64joclwTQBEQuJF2k-119" value="" style="endArrow=none;html=1;rounded=0;entryX=0.5;entryY=1;entryDx=0;entryDy=0;exitX=0.5;exitY=0;exitDx=0;exitDy=0;" edge="1" parent="1" source="Noz64joclwTQBEQuJF2k-62" target="Noz64joclwTQBEQuJF2k-65">
          <mxGeometry width="50" height="50" relative="1" as="geometry">
            <mxPoint x="917.5" y="-910" as="sourcePoint" />
            <mxPoint x="917.5" y="-1010" as="targetPoint" />
          </mxGeometry>
        </mxCell>
        <mxCell id="Noz64joclwTQBEQuJF2k-120" value="" style="endArrow=none;html=1;rounded=0;entryX=1;entryY=0.5;entryDx=0;entryDy=0;exitX=0;exitY=0.5;exitDx=0;exitDy=0;" edge="1" parent="1" source="Noz64joclwTQBEQuJF2k-41" target="Noz64joclwTQBEQuJF2k-62">
          <mxGeometry width="50" height="50" relative="1" as="geometry">
            <mxPoint x="1030" y="-530" as="sourcePoint" />
            <mxPoint x="1030" y="-630" as="targetPoint" />
          </mxGeometry>
        </mxCell>
        <mxCell id="Noz64joclwTQBEQuJF2k-121" value="" style="endArrow=none;html=1;rounded=0;entryX=1;entryY=0.5;entryDx=0;entryDy=0;exitX=0;exitY=0.5;exitDx=0;exitDy=0;" edge="1" parent="1" source="Noz64joclwTQBEQuJF2k-62" target="Noz64joclwTQBEQuJF2k-26">
          <mxGeometry width="50" height="50" relative="1" as="geometry">
            <mxPoint x="747.5" y="-960" as="sourcePoint" />
            <mxPoint x="355.5" y="-960" as="targetPoint" />
          </mxGeometry>
        </mxCell>
        <mxCell id="Noz64joclwTQBEQuJF2k-122" value="" style="endArrow=none;html=1;rounded=0;entryX=0;entryY=0.5;entryDx=0;entryDy=0;" edge="1" parent="1" target="Noz64joclwTQBEQuJF2k-26">
          <mxGeometry width="50" height="50" relative="1" as="geometry">
            <mxPoint x="150" y="-860" as="sourcePoint" />
            <mxPoint x="425" y="-850" as="targetPoint" />
          </mxGeometry>
        </mxCell>
        <mxCell id="Noz64joclwTQBEQuJF2k-123" value="" style="endArrow=none;html=1;rounded=0;exitX=0.5;exitY=0;exitDx=0;exitDy=0;" edge="1" parent="1" source="Noz64joclwTQBEQuJF2k-14">
          <mxGeometry width="50" height="50" relative="1" as="geometry">
            <mxPoint x="758" y="-850" as="sourcePoint" />
            <mxPoint x="150" y="-860" as="targetPoint" />
          </mxGeometry>
        </mxCell>
        <mxCell id="Noz64joclwTQBEQuJF2k-124" value="" style="endArrow=none;html=1;rounded=0;exitX=0.5;exitY=0;exitDx=0;exitDy=0;" edge="1" parent="1" source="Noz64joclwTQBEQuJF2k-27">
          <mxGeometry width="50" height="50" relative="1" as="geometry">
            <mxPoint x="1070" y="-610" as="sourcePoint" />
            <mxPoint x="1670" y="-860" as="targetPoint" />
          </mxGeometry>
        </mxCell>
        <mxCell id="Noz64joclwTQBEQuJF2k-125" value="" style="endArrow=none;html=1;rounded=0;entryX=1;entryY=0.5;entryDx=0;entryDy=0;" edge="1" parent="1" target="Noz64joclwTQBEQuJF2k-41">
          <mxGeometry width="50" height="50" relative="1" as="geometry">
            <mxPoint x="1670" y="-860" as="sourcePoint" />
            <mxPoint x="1120" y="-660" as="targetPoint" />
          </mxGeometry>
        </mxCell>
        <mxCell id="Noz64joclwTQBEQuJF2k-127" value="" style="endArrow=none;html=1;rounded=0;entryX=0.5;entryY=1;entryDx=0;entryDy=0;exitX=0.5;exitY=0;exitDx=0;exitDy=0;" edge="1" parent="1" source="Noz64joclwTQBEQuJF2k-161" target="Noz64joclwTQBEQuJF2k-14">
          <mxGeometry width="50" height="50" relative="1" as="geometry">
            <mxPoint x="390" y="-300" as="sourcePoint" />
            <mxPoint x="440" y="-350" as="targetPoint" />
          </mxGeometry>
        </mxCell>
        <mxCell id="Noz64joclwTQBEQuJF2k-128" value="" style="endArrow=none;html=1;rounded=0;entryX=0;entryY=0.5;entryDx=0;entryDy=0;" edge="1" parent="1" source="Noz64joclwTQBEQuJF2k-163" target="Noz64joclwTQBEQuJF2k-53">
          <mxGeometry width="50" height="50" relative="1" as="geometry">
            <mxPoint x="150" y="20" as="sourcePoint" />
            <mxPoint x="440" y="-40" as="targetPoint" />
          </mxGeometry>
        </mxCell>
        <mxCell id="Noz64joclwTQBEQuJF2k-129" value="" style="endArrow=none;html=1;rounded=0;entryX=0.5;entryY=1;entryDx=0;entryDy=0;" edge="1" parent="1" target="Noz64joclwTQBEQuJF2k-52">
          <mxGeometry width="50" height="50" relative="1" as="geometry">
            <mxPoint x="150" y="20" as="sourcePoint" />
            <mxPoint x="440" y="-40" as="targetPoint" />
          </mxGeometry>
        </mxCell>
        <mxCell id="Noz64joclwTQBEQuJF2k-130" value="" style="endArrow=none;html=1;rounded=0;exitX=1;exitY=0.5;exitDx=0;exitDy=0;" edge="1" parent="1" source="Noz64joclwTQBEQuJF2k-165">
          <mxGeometry width="50" height="50" relative="1" as="geometry">
            <mxPoint x="1200" y="10" as="sourcePoint" />
            <mxPoint x="1670" y="20" as="targetPoint" />
          </mxGeometry>
        </mxCell>
        <mxCell id="Noz64joclwTQBEQuJF2k-131" value="" style="endArrow=none;html=1;rounded=0;entryX=0.5;entryY=1;entryDx=0;entryDy=0;" edge="1" parent="1" target="Noz64joclwTQBEQuJF2k-54">
          <mxGeometry width="50" height="50" relative="1" as="geometry">
            <mxPoint x="1670" y="20" as="sourcePoint" />
            <mxPoint x="1250" y="-40" as="targetPoint" />
          </mxGeometry>
        </mxCell>
        <mxCell id="Noz64joclwTQBEQuJF2k-132" value="" style="endArrow=none;html=1;rounded=0;entryX=0.5;entryY=1;entryDx=0;entryDy=0;" edge="1" parent="1" source="Noz64joclwTQBEQuJF2k-167" target="Noz64joclwTQBEQuJF2k-27">
          <mxGeometry width="50" height="50" relative="1" as="geometry">
            <mxPoint x="1130" y="-170" as="sourcePoint" />
            <mxPoint x="1180" y="-220" as="targetPoint" />
          </mxGeometry>
        </mxCell>
        <mxCell id="Noz64joclwTQBEQuJF2k-133" value="" style="endArrow=none;html=1;rounded=0;exitX=1;exitY=0.5;exitDx=0;exitDy=0;entryX=0;entryY=0.5;entryDx=0;entryDy=0;" edge="1" parent="1" source="Noz64joclwTQBEQuJF2k-147" target="Noz64joclwTQBEQuJF2k-44">
          <mxGeometry width="50" height="50" relative="1" as="geometry">
            <mxPoint x="1260" y="-520" as="sourcePoint" />
            <mxPoint x="1310" y="-570" as="targetPoint" />
          </mxGeometry>
        </mxCell>
        <mxCell id="Noz64joclwTQBEQuJF2k-134" value="" style="endArrow=none;html=1;rounded=0;exitX=0;exitY=0.5;exitDx=0;exitDy=0;entryX=1;entryY=0.5;entryDx=0;entryDy=0;" edge="1" parent="1" source="Noz64joclwTQBEQuJF2k-151" target="Noz64joclwTQBEQuJF2k-44">
          <mxGeometry width="50" height="50" relative="1" as="geometry">
            <mxPoint x="960" y="-520" as="sourcePoint" />
            <mxPoint x="1350" y="-535" as="targetPoint" />
          </mxGeometry>
        </mxCell>
        <mxCell id="Noz64joclwTQBEQuJF2k-135" value="" style="endArrow=none;html=1;rounded=0;entryX=0;entryY=0.5;entryDx=0;entryDy=0;exitX=1;exitY=0.5;exitDx=0;exitDy=0;" edge="1" parent="1" source="Noz64joclwTQBEQuJF2k-146" target="Noz64joclwTQBEQuJF2k-42">
          <mxGeometry width="50" height="50" relative="1" as="geometry">
            <mxPoint x="550" y="-530" as="sourcePoint" />
            <mxPoint x="710" y="-580" as="targetPoint" />
          </mxGeometry>
        </mxCell>
        <mxCell id="Noz64joclwTQBEQuJF2k-136" value="" style="endArrow=none;html=1;rounded=0;entryX=0;entryY=0.5;entryDx=0;entryDy=0;exitX=1;exitY=0.5;exitDx=0;exitDy=0;" edge="1" parent="1" source="Noz64joclwTQBEQuJF2k-144" target="Noz64joclwTQBEQuJF2k-43">
          <mxGeometry width="50" height="50" relative="1" as="geometry">
            <mxPoint x="235" y="-595.62" as="sourcePoint" />
            <mxPoint x="440" y="-595.62" as="targetPoint" />
          </mxGeometry>
        </mxCell>
        <mxCell id="Noz64joclwTQBEQuJF2k-137" value="" style="endArrow=none;html=1;rounded=0;exitX=1;exitY=0.5;exitDx=0;exitDy=0;entryX=0;entryY=0.5;entryDx=0;entryDy=0;" edge="1" parent="1" source="Noz64joclwTQBEQuJF2k-157" target="Noz64joclwTQBEQuJF2k-47">
          <mxGeometry width="50" height="50" relative="1" as="geometry">
            <mxPoint x="660" y="-220" as="sourcePoint" />
            <mxPoint x="710" y="-270" as="targetPoint" />
          </mxGeometry>
        </mxCell>
        <mxCell id="Noz64joclwTQBEQuJF2k-141" value="" style="endArrow=none;html=1;rounded=0;exitX=0;exitY=0.5;exitDx=0;exitDy=0;" edge="1" parent="1" source="Noz64joclwTQBEQuJF2k-159">
          <mxGeometry width="50" height="50" relative="1" as="geometry">
            <mxPoint x="350" y="-510" as="sourcePoint" />
            <mxPoint x="150" y="-260" as="targetPoint" />
          </mxGeometry>
        </mxCell>
        <mxCell id="Noz64joclwTQBEQuJF2k-142" value="" style="endArrow=none;html=1;rounded=0;exitX=1;exitY=0.5;exitDx=0;exitDy=0;" edge="1" parent="1" source="Noz64joclwTQBEQuJF2k-153">
          <mxGeometry width="50" height="50" relative="1" as="geometry">
            <mxPoint x="1310" y="-510" as="sourcePoint" />
            <mxPoint x="1670" y="-260" as="targetPoint" />
          </mxGeometry>
        </mxCell>
        <mxCell id="Noz64joclwTQBEQuJF2k-143" value="" style="endArrow=none;html=1;rounded=0;exitX=1;exitY=0.5;exitDx=0;exitDy=0;entryX=0;entryY=0.5;entryDx=0;entryDy=0;" edge="1" parent="1" source="Noz64joclwTQBEQuJF2k-155" target="Noz64joclwTQBEQuJF2k-51">
          <mxGeometry width="50" height="50" relative="1" as="geometry">
            <mxPoint x="1310" y="-510" as="sourcePoint" />
            <mxPoint x="1360" y="-560" as="targetPoint" />
          </mxGeometry>
        </mxCell>
        <mxCell id="Noz64joclwTQBEQuJF2k-148" value="" style="endArrow=none;html=1;rounded=0;exitX=1;exitY=0.5;exitDx=0;exitDy=0;entryX=0;entryY=0.5;entryDx=0;entryDy=0;" edge="1" parent="1" source="Noz64joclwTQBEQuJF2k-42" target="Noz64joclwTQBEQuJF2k-147">
          <mxGeometry width="50" height="50" relative="1" as="geometry">
            <mxPoint x="950" y="-530" as="sourcePoint" />
            <mxPoint x="1235" y="-530" as="targetPoint" />
          </mxGeometry>
        </mxCell>
        <mxCell id="Noz64joclwTQBEQuJF2k-147" value="M" style="text;html=1;align=center;verticalAlign=middle;whiteSpace=wrap;rounded=0;" vertex="1" parent="1">
          <mxGeometry x="1100" y="-545" width="60" height="30" as="geometry" />
        </mxCell>
        <mxCell id="Noz64joclwTQBEQuJF2k-149" value="" style="endArrow=none;html=1;rounded=0;entryX=0;entryY=0.5;entryDx=0;entryDy=0;exitX=1;exitY=0.5;exitDx=0;exitDy=0;" edge="1" parent="1" source="Noz64joclwTQBEQuJF2k-43" target="Noz64joclwTQBEQuJF2k-146">
          <mxGeometry width="50" height="50" relative="1" as="geometry">
            <mxPoint x="545" y="-530" as="sourcePoint" />
            <mxPoint x="750" y="-530" as="targetPoint" />
          </mxGeometry>
        </mxCell>
        <mxCell id="Noz64joclwTQBEQuJF2k-146" value="M" style="text;html=1;align=center;verticalAlign=middle;whiteSpace=wrap;rounded=0;" vertex="1" parent="1">
          <mxGeometry x="620" y="-545" width="60" height="30" as="geometry" />
        </mxCell>
        <mxCell id="Noz64joclwTQBEQuJF2k-150" value="" style="endArrow=none;html=1;rounded=0;entryX=0;entryY=0.5;entryDx=0;entryDy=0;exitX=1;exitY=0.5;exitDx=0;exitDy=0;" edge="1" parent="1" source="Noz64joclwTQBEQuJF2k-14" target="Noz64joclwTQBEQuJF2k-144">
          <mxGeometry width="50" height="50" relative="1" as="geometry">
            <mxPoint x="250" y="-530" as="sourcePoint" />
            <mxPoint x="440" y="-530" as="targetPoint" />
          </mxGeometry>
        </mxCell>
        <mxCell id="Noz64joclwTQBEQuJF2k-144" value="M" style="text;html=1;align=center;verticalAlign=middle;whiteSpace=wrap;rounded=0;" vertex="1" parent="1">
          <mxGeometry x="325" y="-545" width="60" height="30" as="geometry" />
        </mxCell>
        <mxCell id="Noz64joclwTQBEQuJF2k-152" value="" style="endArrow=none;html=1;rounded=0;exitX=0;exitY=0.5;exitDx=0;exitDy=0;entryX=1;entryY=0.5;entryDx=0;entryDy=0;" edge="1" parent="1" source="Noz64joclwTQBEQuJF2k-27" target="Noz64joclwTQBEQuJF2k-151">
          <mxGeometry width="50" height="50" relative="1" as="geometry">
            <mxPoint x="1570" y="-530" as="sourcePoint" />
            <mxPoint x="1340" y="-530" as="targetPoint" />
          </mxGeometry>
        </mxCell>
        <mxCell id="Noz64joclwTQBEQuJF2k-151" value="M" style="text;html=1;align=center;verticalAlign=middle;whiteSpace=wrap;rounded=0;" vertex="1" parent="1">
          <mxGeometry x="1430" y="-545" width="60" height="30" as="geometry" />
        </mxCell>
        <mxCell id="Noz64joclwTQBEQuJF2k-154" value="" style="endArrow=none;html=1;rounded=0;exitX=1;exitY=0.5;exitDx=0;exitDy=0;" edge="1" parent="1" source="Noz64joclwTQBEQuJF2k-51" target="Noz64joclwTQBEQuJF2k-153">
          <mxGeometry width="50" height="50" relative="1" as="geometry">
            <mxPoint x="1445" y="-260" as="sourcePoint" />
            <mxPoint x="1670" y="-260" as="targetPoint" />
          </mxGeometry>
        </mxCell>
        <mxCell id="Noz64joclwTQBEQuJF2k-153" value="M" style="text;html=1;align=center;verticalAlign=middle;whiteSpace=wrap;rounded=0;" vertex="1" parent="1">
          <mxGeometry x="1510" y="-275" width="60" height="30" as="geometry" />
        </mxCell>
        <mxCell id="Noz64joclwTQBEQuJF2k-156" value="" style="endArrow=none;html=1;rounded=0;exitX=1;exitY=0.5;exitDx=0;exitDy=0;entryX=0;entryY=0.5;entryDx=0;entryDy=0;" edge="1" parent="1" source="Noz64joclwTQBEQuJF2k-47" target="Noz64joclwTQBEQuJF2k-155">
          <mxGeometry width="50" height="50" relative="1" as="geometry">
            <mxPoint x="950" y="-260" as="sourcePoint" />
            <mxPoint x="1340" y="-260" as="targetPoint" />
          </mxGeometry>
        </mxCell>
        <mxCell id="Noz64joclwTQBEQuJF2k-155" value="M" style="text;html=1;align=center;verticalAlign=middle;whiteSpace=wrap;rounded=0;" vertex="1" parent="1">
          <mxGeometry x="1130" y="-275" width="60" height="30" as="geometry" />
        </mxCell>
        <mxCell id="Noz64joclwTQBEQuJF2k-158" value="" style="endArrow=none;html=1;rounded=0;exitX=1;exitY=0.5;exitDx=0;exitDy=0;entryX=0;entryY=0.5;entryDx=0;entryDy=0;" edge="1" parent="1" source="Noz64joclwTQBEQuJF2k-50" target="Noz64joclwTQBEQuJF2k-157">
          <mxGeometry width="50" height="50" relative="1" as="geometry">
            <mxPoint x="415" y="-260" as="sourcePoint" />
            <mxPoint x="750" y="-260" as="targetPoint" />
          </mxGeometry>
        </mxCell>
        <mxCell id="Noz64joclwTQBEQuJF2k-157" value="M" style="text;html=1;align=center;verticalAlign=middle;whiteSpace=wrap;rounded=0;" vertex="1" parent="1">
          <mxGeometry x="540" y="-275" width="60" height="30" as="geometry" />
        </mxCell>
        <mxCell id="Noz64joclwTQBEQuJF2k-160" value="" style="endArrow=none;html=1;rounded=0;exitX=0;exitY=0.5;exitDx=0;exitDy=0;" edge="1" parent="1" source="Noz64joclwTQBEQuJF2k-50" target="Noz64joclwTQBEQuJF2k-159">
          <mxGeometry width="50" height="50" relative="1" as="geometry">
            <mxPoint x="310" y="-260" as="sourcePoint" />
            <mxPoint x="150" y="-260" as="targetPoint" />
          </mxGeometry>
        </mxCell>
        <mxCell id="Noz64joclwTQBEQuJF2k-159" value="M" style="text;html=1;align=center;verticalAlign=middle;whiteSpace=wrap;rounded=0;" vertex="1" parent="1">
          <mxGeometry x="205" y="-275" width="60" height="30" as="geometry" />
        </mxCell>
        <mxCell id="Noz64joclwTQBEQuJF2k-162" value="" style="endArrow=none;html=1;rounded=0;entryX=0.5;entryY=1;entryDx=0;entryDy=0;exitX=0.5;exitY=0;exitDx=0;exitDy=0;" edge="1" parent="1" source="Noz64joclwTQBEQuJF2k-52" target="Noz64joclwTQBEQuJF2k-161">
          <mxGeometry width="50" height="50" relative="1" as="geometry">
            <mxPoint x="150" y="-130" as="sourcePoint" />
            <mxPoint x="150" y="-500" as="targetPoint" />
          </mxGeometry>
        </mxCell>
        <mxCell id="Noz64joclwTQBEQuJF2k-161" value="M" style="text;html=1;align=center;verticalAlign=middle;whiteSpace=wrap;rounded=0;" vertex="1" parent="1">
          <mxGeometry x="120" y="-180" width="60" height="30" as="geometry" />
        </mxCell>
        <mxCell id="Noz64joclwTQBEQuJF2k-164" value="" style="endArrow=none;html=1;rounded=0;entryX=0;entryY=0.5;entryDx=0;entryDy=0;" edge="1" parent="1" target="Noz64joclwTQBEQuJF2k-163">
          <mxGeometry width="50" height="50" relative="1" as="geometry">
            <mxPoint x="150" y="20" as="sourcePoint" />
            <mxPoint x="750" y="20" as="targetPoint" />
          </mxGeometry>
        </mxCell>
        <mxCell id="Noz64joclwTQBEQuJF2k-163" value="1" style="text;html=1;align=center;verticalAlign=middle;whiteSpace=wrap;rounded=0;" vertex="1" parent="1">
          <mxGeometry x="530" y="5" width="60" height="30" as="geometry" />
        </mxCell>
        <mxCell id="Noz64joclwTQBEQuJF2k-166" value="" style="endArrow=none;html=1;rounded=0;exitX=1;exitY=0.5;exitDx=0;exitDy=0;" edge="1" parent="1" source="Noz64joclwTQBEQuJF2k-53" target="Noz64joclwTQBEQuJF2k-165">
          <mxGeometry width="50" height="50" relative="1" as="geometry">
            <mxPoint x="950" y="20" as="sourcePoint" />
            <mxPoint x="1670" y="20" as="targetPoint" />
          </mxGeometry>
        </mxCell>
        <mxCell id="Noz64joclwTQBEQuJF2k-165" value="M" style="text;html=1;align=center;verticalAlign=middle;whiteSpace=wrap;rounded=0;" vertex="1" parent="1">
          <mxGeometry x="1110" y="5" width="60" height="30" as="geometry" />
        </mxCell>
        <mxCell id="Noz64joclwTQBEQuJF2k-168" value="" style="endArrow=none;html=1;rounded=0;entryX=0.5;entryY=1;entryDx=0;entryDy=0;" edge="1" parent="1" source="Noz64joclwTQBEQuJF2k-54" target="Noz64joclwTQBEQuJF2k-167">
          <mxGeometry width="50" height="50" relative="1" as="geometry">
            <mxPoint x="1670" y="-130" as="sourcePoint" />
            <mxPoint x="1670" y="-500" as="targetPoint" />
          </mxGeometry>
        </mxCell>
        <mxCell id="Noz64joclwTQBEQuJF2k-167" value="M" style="text;html=1;align=center;verticalAlign=middle;whiteSpace=wrap;rounded=0;" vertex="1" parent="1">
          <mxGeometry x="1640" y="-190" width="60" height="30" as="geometry" />
        </mxCell>
      </root>
    </mxGraphModel>
  </diagram>
</mxfile>
